<svg width="20" height="20" viewBox="0 0 20 20" fill="none" xmlns="http://www.w3.org/2000/svg">
<g clip-path="url(#clip0)">
<path d="M6.44372 12.8049H6.44464C6.4454 12.8049 6.44617 12.8048 6.44693 12.8048H17.0701C17.3317 12.8048 17.5616 12.633 17.6335 12.384L19.9772 4.26219C20.0277 4.08709 19.9923 3.89885 19.8817 3.75351C19.7709 3.60818 19.5977 3.52267 19.4139 3.52267H5.09242L4.67357 1.65643C4.61391 1.39099 4.37618 1.20215 4.10152 1.20215H0.585932C0.262296 1.20215 0 1.46185 0 1.78228C0 2.10271 0.262296 2.36241 0.585932 2.36241H3.63156C3.70571 2.69311 5.63593 11.2932 5.74701 11.788C5.12431 12.056 4.68745 12.6708 4.68745 13.3849C4.68745 14.3445 5.47602 15.1253 6.44525 15.1253H17.0701C17.3938 15.1253 17.6561 14.8656 17.6561 14.5452C17.6561 14.2247 17.3938 13.965 17.0701 13.965H6.44525C6.12222 13.965 5.85932 13.7047 5.85932 13.3849C5.85932 13.0655 6.12131 12.8057 6.44372 12.8049ZM18.6371 4.68293L16.6281 11.6445H6.91522L5.35273 4.68293H18.6371Z" fill="white"/>
<path d="M5.85931 16.8625C5.85931 17.8221 6.64788 18.6029 7.61711 18.6029C8.58634 18.6029 9.37491 17.8221 9.37491 16.8625C9.37491 15.9028 8.58634 15.1221 7.61711 15.1221C6.64788 15.1221 5.85931 15.9028 5.85931 16.8625ZM7.61711 16.2823C7.94014 16.2823 8.20304 16.5426 8.20304 16.8625C8.20304 17.1823 7.94014 17.4426 7.61711 17.4426C7.29408 17.4426 7.03118 17.1823 7.03118 16.8625C7.03118 16.5426 7.29408 16.2823 7.61711 16.2823Z" fill="white"/>
<path d="M14.1405 16.8625C14.1405 17.8221 14.929 18.6029 15.8983 18.6029C16.8675 18.6029 17.6561 17.8221 17.6561 16.8625C17.6561 15.9028 16.8675 15.1221 15.8983 15.1221C14.929 15.1221 14.1405 15.9028 14.1405 16.8625ZM15.8983 16.2823C16.2213 16.2823 16.4842 16.5426 16.4842 16.8625C16.4842 17.1823 16.2213 17.4426 15.8983 17.4426C15.5753 17.4426 15.3123 17.1823 15.3123 16.8625C15.3123 16.5426 15.5753 16.2823 15.8983 16.2823Z" fill="white"/>
</g>
<defs>
<clipPath id="clip0">
<rect width="19.9998" height="19.8018" fill="white"/>
</clipPath>
</defs>
</svg>
