<svg width="26" height="25" fill="none" xmlns="http://www.w3.org/2000/svg"><g clip-path="url(#clip0)" fill="#252525"><path d="M8.575 16.166h13.416a.74.74 0 00.711-.531l2.96-10.254a.727.727 0 00-.121-.642.742.742 0 00-.59-.292H6.868L6.34 2.091a.738.738 0 00-.722-.573H1.18a.736.736 0 00-.74.732c0 .405.331.732.74.732h3.845l2.67 11.9a2.2 2.2 0 00-1.337 2.016c0 1.212.995 2.198 2.22 2.198H21.99c.409 0 .74-.328.74-.733a.736.736 0 00-.74-.732H8.577a.737.737 0 01-.74-.733c0-.403.331-.73.738-.732zM23.97 5.912l-2.537 8.79H9.17l-1.972-8.79h16.771z"/><path d="M7.837 21.29c0 1.21.996 2.196 2.22 2.196 1.223 0 2.219-.985 2.219-2.197 0-1.212-.996-2.197-2.22-2.197-1.223 0-2.219.986-2.219 2.197zm2.22-.733c.407 0 .74.328.74.732a.737.737 0 01-.74.732.737.737 0 01-.74-.732c0-.404.332-.732.74-.732zm8.236.733c0 1.21.995 2.196 2.219 2.196 1.223 0 2.219-.985 2.219-2.197 0-1.212-.996-2.197-2.22-2.197-1.223 0-2.218.986-2.218 2.197zm2.219-.733c.407 0 .74.328.74.732a.737.737 0 01-.74.732.737.737 0 01-.74-.732c0-.404.332-.732.74-.732z"/></g><defs><clipPath id="clip0"><path fill="#fff" d="M.44 0h25.25v25H.44z"/></clipPath></defs></svg>