<svg width="20" height="20" fill="none" xmlns="http://www.w3.org/2000/svg"><g clip-path="url(#clip0)" fill="#fff"><path d="M6.444 12.805H17.07a.585.585 0 00.564-.421l2.343-8.122a.576.576 0 00-.095-.508.588.588 0 00-.468-.231H5.092l-.418-1.867a.585.585 0 00-.572-.454H.586a.583.583 0 00-.586.58c0 .32.262.58.586.58h3.046l2.115 9.426a1.743 1.743 0 00-1.06 1.597c0 .96.789 1.74 1.758 1.74H17.07c.324 0 .586-.26.586-.58 0-.32-.262-.58-.586-.58H6.445a.584.584 0 01-.586-.58c0-.32.262-.58.585-.58zm12.193-8.122l-2.009 6.962H6.915L5.353 4.683h13.284z"/><path d="M5.86 16.863c0 .96.788 1.74 1.757 1.74.97 0 1.758-.78 1.758-1.74s-.789-1.74-1.758-1.74c-.97 0-1.758.78-1.758 1.74zm1.757-.58c.323 0 .586.26.586.58 0 .32-.263.58-.586.58a.584.584 0 01-.586-.58c0-.32.263-.58.586-.58zm6.523.58c0 .96.789 1.74 1.758 1.74.97 0 1.758-.78 1.758-1.74s-.788-1.74-1.758-1.74a1.75 1.75 0 00-1.758 1.74zm1.758-.58c.323 0 .586.26.586.58 0 .32-.263.58-.586.58a.584.584 0 01-.586-.58c0-.32.263-.58.586-.58z"/></g><defs><clipPath id="clip0"><path fill="#fff" d="M0 0h20v19.802H0z"/></clipPath></defs></svg>